<?xml version="1.0" encoding="iso-8859-1"?>
<!-- Generator: Adobe Illustrator 19.0.0, SVG Export Plug-In . SVG Version: 6.00 Build 0)  -->
<svg version="1.1" id="Layer_1" xmlns="http://www.w3.org/2000/svg" xmlns:xlink="http://www.w3.org/1999/xlink" x="0px" y="0px"
	 viewBox="0 0 512 512" style="enable-background:new 0 0 512 512;" xml:space="preserve">
<g>
	<g>
		<path d="M427.812,348.058l9.531-257.398c0-17.672-81.188-32-181.344-32c-100.148,0-181.328,14.328-181.328,32l9.531,257.398
			C32.492,350.214,0,355.464,0,367.995c0,23.562,52.859,85.344,256,85.344c203.156,0,256-61.781,256-85.344
			C512,355.448,479.516,350.214,427.812,348.058z M144.671,86.94c31.212-4.476,70.751-6.945,111.329-6.945
			c40.594,0,80.125,2.469,111.328,6.945c8.672,1.25,15.969,2.539,22.109,3.797c-25.172,5.188-67.266,10.594-133.438,10.594
			c-66.141,0-108.227-5.406-133.406-10.594C128.726,89.471,136.015,88.182,144.671,86.94z M118.711,111.776
			c35.281,7.227,81.477,10.883,137.289,10.883s102-3.656,137.297-10.883c9.172-1.875,16.453-3.773,22.109-5.492l-9.531,257.133
			c-5.672,1.656-13.594,3.656-24.094,5.641c-23.078,4.375-63.641,9.594-125.781,9.594c-62.133,0-102.695-5.219-125.781-9.594
			c-10.492-1.984-18.422-3.984-24.102-5.641l-9.523-257.133C102.25,108.003,109.523,109.901,118.711,111.776z M446.781,402.183
			c-19.781,8.844-44.281,15.844-72.766,20.844c-34.047,5.938-73.766,8.969-118.016,8.969s-83.953-3.031-118.016-8.969
			c-28.484-5-52.969-12-72.773-20.844c-22.109-9.875-33.734-20.016-39.352-26.891c1.961-0.453,4.312-0.922,7.117-1.406
			c9.773-1.656,22.414-2.922,38.648-3.844c4.273-0.234,8.734-0.453,13.367-0.656l0.344,9.266c0,0,42.664,21.344,170.664,21.344
			s170.672-21.344,170.672-21.344l0.344-9.266c4.641,0.203,9.094,0.406,13.375,0.656c16.234,0.922,28.859,2.188,38.641,3.844
			c2.812,0.484,5.156,0.953,7.125,1.406C480.531,382.167,468.906,392.308,446.781,402.183z"/>
	</g>
</g>
<g>
</g>
<g>
</g>
<g>
</g>
<g>
</g>
<g>
</g>
<g>
</g>
<g>
</g>
<g>
</g>
<g>
</g>
<g>
</g>
<g>
</g>
<g>
</g>
<g>
</g>
<g>
</g>
<g>
</g>
</svg>
